# xmcd
#
# Track frame offsets: 
#        151
#        22546
#        45081
#        64978
#        79917
#        95610
#        114079
#        136208
#        152871
#        172766
#        191913
#        207856
#
# Disc length: 3045 seconds
#
# Revision: 0
# Processed by: cddbd v1.5.2PL0 Copyright (c) Steve Scherf et al.
# Submitted via: ExactAudioCopy v1.0b3
#
DISCID=8d0be30c
DTITLE=江珊 - stereo梦里水乡
DYEAR=2002
DGENRE=stereo
TTITLE0=梦里水乡
TTITLE1=温柔花
TTITLE2=只爱我一个
TTITLE3=请你靠近我
TTITLE4=像我这样的女人
TTITLE5=距离
TTITLE6=感情的胡同
TTITLE7=Don’t Say Goodbye
TTITLE8=红颜为你开放
TTITLE9=你的激情只有一点点虚假
TTITLE10=你快乐吗
TTITLE11=今夜谁在梦中
EXTD=
EXTT0=
EXTT1=
EXTT2=
EXTT3=
EXTT4=
EXTT5=
EXTT6=
EXTT7=
EXTT8=
EXTT9=
EXTT10=
EXTT11=
PLAYORDER=
